<svg width="110" height="27" viewBox="0 0 110 27" fill="none" xmlns="http://www.w3.org/2000/svg">
<path d="M0.47594 5.26399C0.681274 4.90933 0.97994 4.69466 1.37194 4.61999C3.68661 4.19066 5.45061 3.89199 6.66394 3.72399C8.51194 3.46266 10.2293 3.44399 11.8159 3.668C11.8533 3.668 11.9466 3.67733 12.0959 3.696C12.2453 3.71466 12.3479 3.73333 12.4039 3.752C12.4786 3.752 12.5719 3.77066 12.6839 3.808C12.7959 3.82666 12.8893 3.864 12.9639 3.92C13.0573 3.97599 13.1413 4.04133 13.2159 4.11599C13.3653 4.24666 13.5146 4.52666 13.6639 4.956C14.3733 6.95333 14.6719 9.212 14.5599 11.732C14.5226 12.6467 14.3826 14 14.1399 15.792C14.1026 16.1653 14.0373 17.024 13.9439 18.368C13.8693 19.6933 13.7386 20.7107 13.5519 21.42C13.3653 22.1853 13.1226 22.708 12.8239 22.988C12.5999 23.212 11.9466 23.3613 10.8639 23.436C9.79994 23.5107 8.83861 23.52 7.97994 23.464C7.55061 23.4453 7.30794 23.3053 7.25194 23.044C7.21461 22.932 7.21461 22.792 7.25194 22.624C7.28927 22.4747 7.33594 22.3067 7.39194 22.12C7.44794 21.9333 7.47594 21.8027 7.47594 21.728C7.56927 21.224 7.64394 20.7107 7.69994 20.188C7.81194 19.2547 7.88661 18.2467 7.92394 17.164C7.96127 15.82 7.93327 13.8227 7.83994 11.172C7.82127 10.78 7.76527 10.5 7.67194 10.332C7.42927 9.884 6.85061 9.76266 5.93594 9.968C4.90927 10.2107 3.06127 10.2853 0.39194 10.192C0.261274 10.192 0.16794 10.164 0.11194 10.108C0.0372737 10.0333 0.00927368 9.884 0.0279403 9.66C0.19594 6.95333 0.345274 5.488 0.47594 5.26399ZM18.2559 0.951995C19.3386 0.895995 19.9079 0.867995 19.9639 0.867995C20.5799 0.886661 21.1866 0.942661 21.7839 1.03599C22.3999 1.11066 22.9413 1.16666 23.4079 1.204C23.9493 1.25999 24.2293 1.55866 24.2479 2.1C24.2666 2.772 24.3133 3.79866 24.3879 5.18C24.4813 6.56133 24.5373 7.60666 24.5559 8.316C24.5933 8.83866 24.6026 9.78133 24.5839 11.144C24.5839 12.5067 24.5839 13.4493 24.5839 13.972C24.6026 14.7187 24.6026 16.268 24.5839 18.62C24.5839 20.972 24.5839 22.5307 24.5839 23.296C24.5839 23.3147 24.5839 23.3333 24.5839 23.352C24.5839 23.744 24.5279 24.1173 24.4159 24.472C24.1733 25.1627 23.7253 25.4987 23.0719 25.48C22.7733 25.48 22.4186 25.48 22.0079 25.48C21.6159 25.4987 21.2799 25.4893 20.9999 25.452C20.7759 25.4333 20.5426 25.3587 20.2999 25.228C20.0573 25.0973 19.8986 24.948 19.8239 24.78C19.2826 23.436 18.9933 22.4 18.9559 21.672C18.8813 20.0293 18.8253 17.276 18.7879 13.412C18.7693 9.548 18.7319 6.90666 18.6759 5.488C18.6759 5.04 18.6479 4.57333 18.5919 4.088C18.5546 3.58399 18.4986 3.01466 18.4239 2.38C18.3493 1.74533 18.2933 1.26933 18.2559 0.951995ZM31.576 17.304C31.632 17.2853 32.052 17.1733 32.836 16.968C33.6387 16.744 34.2267 16.632 34.6 16.632C34.768 16.632 34.9454 16.6507 35.132 16.688C35.356 16.744 35.6174 16.772 35.916 16.772C36.0654 16.772 36.28 16.7627 36.56 16.744C36.84 16.7253 37.0454 16.716 37.176 16.716C37.3254 16.716 37.5307 16.7253 37.792 16.744C38.072 16.7627 38.2774 16.772 38.408 16.772C38.8934 16.772 39.3974 16.744 39.92 16.688C40.4427 16.6133 41.012 16.52 41.628 16.408C42.2627 16.296 42.748 16.2213 43.084 16.184C43.476 16.128 43.9054 16.1 44.372 16.1C44.8014 16.1 45.52 16.1373 46.528 16.212C47.5547 16.268 48.1987 16.296 48.46 16.296C48.5534 16.296 48.6187 16.3333 48.656 16.408C48.992 17.08 49.1974 17.92 49.272 18.928C49.3094 19.3947 49.328 19.7587 49.328 20.02C49.328 20.4493 49.3094 20.8693 49.272 21.28C49.2534 21.6907 49.216 22.176 49.16 22.736C49.1227 23.296 49.0947 23.7067 49.076 23.968C49.0387 24.2667 48.824 24.7987 48.432 25.564C48.32 25.788 48.1614 25.956 47.956 26.068C47.7507 26.1987 47.5734 26.2733 47.424 26.292C47.2934 26.3107 47.088 26.3387 46.808 26.376C46.472 26.3947 46.2294 26.4227 46.08 26.46C45.8934 26.4973 45.604 26.5347 45.212 26.572C44.8387 26.628 44.568 26.6747 44.4 26.712C44.288 26.7307 44.1947 26.74 44.12 26.74C43.7467 26.74 43.5507 26.5067 43.532 26.04C43.476 24.08 43.448 22.6987 43.448 21.896C43.4294 21.28 43.1587 20.972 42.636 20.972C42.58 20.972 42.524 20.9813 42.468 21C42.188 21.0187 41.7867 21.084 41.264 21.196C40.76 21.2893 40.4334 21.3453 40.284 21.364C40.1534 21.3827 39.864 21.4293 39.416 21.504C38.9867 21.5787 38.6134 21.6347 38.296 21.672C37.9974 21.7093 37.6987 21.728 37.4 21.728C36.672 21.728 35.1974 21.6347 32.976 21.448C32.864 21.4293 32.7334 21.3827 32.584 21.308C32.4534 21.2147 32.388 21.1307 32.388 21.056C32.332 20.8507 32.22 20.5893 32.052 20.272C31.9027 19.936 31.828 19.6 31.828 19.264C31.828 19.1893 31.772 19.012 31.66 18.732C31.548 18.4333 31.5387 18.2093 31.632 18.06C31.6507 18.004 31.66 17.948 31.66 17.892C31.66 17.7987 31.6414 17.696 31.604 17.584C31.5854 17.472 31.576 17.3787 31.576 17.304ZM33.732 8.512C34.0867 9.632 34.3014 10.2573 34.376 10.388C34.432 10.5 34.5254 10.6213 34.656 10.752C34.8054 10.864 34.9267 10.9107 35.02 10.892C35.6547 10.836 36.1774 10.6773 36.588 10.416C36.9987 10.136 37.26 9.76266 37.372 9.296C37.484 8.81066 37.372 8.24133 37.036 7.588C36.532 6.58 35.748 6.23466 34.684 6.552C34.0867 6.73866 33.7694 7.392 33.732 8.512ZM36.784 14.504C34.6934 14.56 32.78 14.0933 31.044 13.104C29.98 12.5067 29.2707 11.5173 28.916 10.136C28.4867 8.456 28.4307 7.09333 28.748 6.04799C28.9347 5.46933 29.2054 4.93733 29.56 4.452C30.2694 3.48133 30.8854 2.75333 31.408 2.268C32.2107 1.54 33.228 1.25066 34.46 1.39999C36.0654 1.60533 37.764 2.24933 39.556 3.33199C40.564 3.92933 41.18 4.844 41.404 6.076C41.7214 8.036 41.74 9.62266 41.46 10.836C41.1987 12.0307 40.6574 12.964 39.836 13.636C39.0334 14.308 38.016 14.5973 36.784 14.504ZM46.78 5.068C47.3214 5.16133 47.6854 5.30133 47.872 5.488C48.0774 5.656 48.1987 5.97333 48.236 6.43999C48.2547 6.664 48.264 7 48.264 7.448C48.264 7.87733 48.264 8.12933 48.264 8.204C48.2827 8.67066 47.9654 9.016 47.312 9.24C46.864 9.38933 46.332 9.51066 45.716 9.604C45.0067 9.69733 44.5867 9.44533 44.456 8.848C44.176 7.65333 44.3627 6.47733 45.016 5.32C45.072 5.24533 45.156 5.18933 45.268 5.15199C45.3987 5.11466 45.5854 5.08666 45.828 5.068C46.0707 5.03066 46.22 5.00266 46.276 4.984C46.2947 4.984 46.4627 5.012 46.78 5.068ZM52.94 10.668C52.9214 11.844 52.6414 12.656 52.1 13.104C51.8947 13.272 51.6147 13.3933 51.26 13.468C50.924 13.524 50.6254 13.5427 50.364 13.524H50L49.384 13.356C49.0107 13.2627 48.824 13.02 48.824 12.628C48.8427 9.47333 48.824 7.336 48.768 6.216C48.6934 4.984 48.656 3.47199 48.656 1.67999C48.656 1.30666 48.7867 0.998661 49.048 0.755995C49.3094 0.513329 49.636 0.391996 50.028 0.391996L52.016 0.587995C52.0907 0.643995 52.184 0.718662 52.296 0.811996C52.408 0.886662 52.5667 1.05466 52.772 1.316C52.9774 1.55866 53.08 1.80133 53.08 2.04399C53.08 2.13733 53.08 3.06133 53.08 4.816C53.0614 4.816 53.0427 5.14266 53.024 5.79599C53.024 6.44933 53.0147 7.31733 52.996 8.4C52.9774 9.464 52.9587 10.22 52.94 10.668ZM63.5721 17.976C63.5721 18.1813 63.5721 18.48 63.5721 18.872C63.5721 19.2453 63.5721 19.5347 63.5721 19.74C63.9081 19.74 64.4028 19.74 65.0561 19.74C65.7094 19.74 66.2041 19.74 66.5401 19.74C67.3054 19.74 67.9774 19.7307 68.5561 19.712C68.9108 19.712 69.4241 19.6933 70.0961 19.656C70.7681 19.6 71.1788 19.572 71.3281 19.572C72.0001 19.5347 72.3361 19.1893 72.3361 18.536C72.3361 18.4987 72.3361 18.4427 72.3361 18.368C72.3361 18.2933 72.3361 18.2467 72.3361 18.228C72.3361 17.7987 72.3641 17.4533 72.4201 17.192C72.4761 16.8933 72.5134 16.7067 72.5321 16.632C72.5694 16.5573 72.6254 16.4547 72.7001 16.324C72.7748 16.1933 72.8774 16.1187 73.0081 16.1C73.1388 16.0627 73.3254 16.044 73.5681 16.044C73.6241 16.044 73.8948 16.0067 74.3801 15.932C74.8841 15.8573 75.1734 15.8293 75.2481 15.848C76.1441 16.0907 76.6854 16.3147 76.8721 16.52C77.0774 16.7253 77.1801 17.22 77.1801 18.004C77.1801 19.3293 77.1241 20.9813 77.0121 22.96C76.9748 23.7067 76.6388 24.3507 76.0041 24.892C75.3881 25.4333 74.6414 25.7413 73.7641 25.816C73.3534 25.8533 72.6068 25.9467 71.5241 26.096C70.4601 26.264 69.6294 26.3667 69.0321 26.404C68.6961 26.4227 68.3321 26.432 67.9401 26.432C67.4174 26.432 66.2881 26.3853 64.5521 26.292C64.0294 26.2547 63.2921 26.152 62.3401 25.984C61.1268 25.7413 60.3334 24.9947 59.9601 23.744C59.6614 22.7733 59.5121 21.7467 59.5121 20.664C59.5121 19.5627 59.6801 18.172 60.0161 16.492C60.0534 16.3427 60.1188 16.2213 60.2121 16.128C60.3054 16.0347 60.4454 15.9787 60.6321 15.96C60.8374 15.9227 61.0148 15.904 61.1641 15.904C61.3134 15.8853 61.5188 15.876 61.7801 15.876C61.8921 15.876 61.9761 15.876 62.0321 15.876C62.2561 15.876 62.4241 15.8853 62.5361 15.904C62.6481 15.904 62.7788 15.9227 62.9281 15.96C63.0961 15.9787 63.2174 16.0253 63.2921 16.1C63.3668 16.156 63.4321 16.2493 63.4881 16.38C63.5441 16.5107 63.5721 16.6693 63.5721 16.856C63.5721 17.192 63.5721 17.5653 63.5721 17.976ZM68.4441 22.204C68.0148 22.204 67.6041 22.2133 67.2121 22.232C66.5774 22.232 65.9428 22.288 65.3081 22.4C65.1961 22.4187 65.0748 22.4747 64.9441 22.568C64.8321 22.68 64.7761 22.764 64.7761 22.82C64.8321 23.1187 64.9814 23.3333 65.2241 23.464C65.3734 23.5387 65.5881 23.576 65.8681 23.576C66.1108 23.576 66.3908 23.5573 66.7081 23.52C67.0068 23.4827 67.2308 23.464 67.3801 23.464C67.5294 23.464 67.6694 23.4733 67.8001 23.492C68.1361 23.5667 68.5001 23.604 68.8921 23.604C69.4148 23.604 70.1148 23.5107 70.9921 23.324C71.4588 23.2307 71.6921 22.988 71.6921 22.596C71.6921 22.5213 71.6828 22.428 71.6641 22.316C71.5521 22.26 71.4961 22.232 71.4961 22.232C71.2534 22.232 70.9268 22.232 70.5161 22.232C70.1241 22.232 69.7508 22.2227 69.3961 22.204C69.0601 22.204 68.7428 22.204 68.4441 22.204ZM63.7121 13.916C63.3574 13.916 62.8814 13.9253 62.2841 13.944C61.7054 13.944 61.2108 13.944 60.8001 13.944C60.4081 13.944 60.0348 13.9253 59.6801 13.888C59.1014 13.832 58.6441 13.6733 58.3081 13.412C57.9908 13.1507 57.7854 12.7493 57.6921 12.208C57.4121 10.7147 57.2348 9.38933 57.1601 8.232C57.1041 7.056 57.1134 5.712 57.1881 4.2C57.2068 3.584 57.3468 3.06133 57.6081 2.632C57.8881 2.20266 58.3734 1.89466 59.0641 1.708C60.2588 1.39066 61.3134 1.18533 62.2281 1.092C62.3588 1.07333 62.5361 1.19466 62.7601 1.456C62.9841 1.69866 63.0961 1.91333 63.0961 2.1C63.1334 2.38 63.2174 2.87466 63.3481 3.58399C63.4788 4.27466 63.5348 4.86266 63.5161 5.348C63.4974 5.83333 63.3761 6.3 63.1521 6.748C62.9654 7.12133 62.9094 7.70933 62.9841 8.512C62.9841 8.624 63.0681 8.74533 63.2361 8.876C63.4228 8.988 63.5814 9.05333 63.7121 9.072C63.9174 9.072 64.0668 9.072 64.1601 9.072C64.2534 9.072 64.4028 9.05333 64.6081 9.016C64.8321 8.97866 64.9908 8.95066 65.0841 8.932C67.7348 8.63333 69.3681 8.456 69.9841 8.4C70.5254 8.344 70.8801 8.624 71.0481 9.24C71.3468 10.08 71.4868 10.64 71.4681 10.92C71.4494 11.2 71.1788 11.6667 70.6561 12.32C70.5254 12.488 70.0028 12.7213 69.0881 13.02C66.6801 13.804 64.8881 14.1027 63.7121 13.916ZM78.4961 8.176C78.4961 9.856 78.4961 10.78 78.4961 10.948C78.4961 11.2467 78.4588 11.7973 78.3841 12.6C78.3281 13.048 78.0668 13.2813 77.6001 13.3C76.6108 13.3187 75.7521 13.3093 75.0241 13.272C74.6134 13.2533 74.2588 13.104 73.9601 12.824C73.6801 12.544 73.5308 12.208 73.5121 11.816C73.4934 10.4347 73.4934 8.69866 73.5121 6.608C73.5308 6.29066 73.5494 5.572 73.5681 4.452C73.6054 3.31333 73.6334 2.53866 73.6521 2.128C73.6521 1.56799 73.8481 1.18533 74.2401 0.979995C74.3334 0.923995 74.5014 0.830661 74.7441 0.699995C75.0054 0.569328 75.2014 0.475995 75.3321 0.419996C75.4628 0.363995 75.6308 0.298662 75.8361 0.223995C76.0601 0.130661 76.2654 0.0746617 76.4521 0.0559952C76.6574 0.0186613 76.8628 0.00932805 77.0681 0.0279956C77.4228 0.046662 77.6748 0.0839954 77.8241 0.139996C78.2161 0.289328 78.4121 0.578661 78.4121 1.00799C78.4121 1.79199 78.4774 2.78133 78.6081 3.97599C78.6454 4.2 78.8228 4.33066 79.1401 4.36799C80.4841 4.46133 81.2401 4.52666 81.4081 4.564C81.8188 4.65733 82.0521 4.984 82.1081 5.54399C82.2014 6.38399 82.0521 7.13066 81.6601 7.784C81.5481 7.97066 81.2308 8.10133 80.7081 8.176C80.6521 8.176 79.9148 8.176 78.4961 8.176ZM87.6162 5.40399C88.8855 5.04933 90.2669 5.00266 91.7602 5.26399C92.0589 5.32 92.3109 5.59066 92.5162 6.076C92.7402 6.54266 92.8242 6.98133 92.7682 7.392C92.7495 7.56 92.6749 8.66133 92.5442 10.696C92.5442 10.864 92.5815 10.976 92.6562 11.032C92.7309 11.0693 92.8522 11.0973 93.0202 11.116C95.0549 11.396 96.6229 11.816 97.7242 12.376C98.1535 12.5813 98.3962 12.7493 98.4522 12.88C98.5269 12.992 98.5175 13.2813 98.4242 13.748C98.3309 14.14 98.2655 14.6813 98.2282 15.372C98.1909 16.0627 98.1069 16.6413 97.9762 17.108C97.8642 17.4627 97.7335 17.6867 97.5842 17.78C97.4535 17.8733 97.3135 17.9013 97.1642 17.864C97.0335 17.808 96.8095 17.7333 96.4922 17.64C96.1935 17.5467 95.8949 17.5 95.5962 17.5C95.5402 17.5 95.4749 17.4813 95.4002 17.444C95.3255 17.388 95.2882 17.36 95.2882 17.36C93.6082 16.6693 92.5162 16.0347 92.0122 15.456C91.9375 15.3627 91.8442 15.2787 91.7322 15.204C91.6202 15.1107 91.4802 15.008 91.3122 14.896C91.1629 14.784 91.0415 14.7 90.9482 14.644C90.1829 15.8573 89.7722 16.5107 89.7162 16.604C88.7829 17.9667 88.1015 18.9187 87.6722 19.46C87.5975 19.5347 87.4949 19.656 87.3642 19.824C87.2522 19.992 87.1402 20.1507 87.0282 20.3C86.9349 20.4307 86.8135 20.5987 86.6642 20.804C86.5149 20.9907 86.3749 21.14 86.2442 21.252C86.1322 21.364 86.0015 21.476 85.8522 21.588C85.7029 21.7 85.5722 21.756 85.4602 21.756C85.3482 21.756 85.2269 21.728 85.0962 21.672C83.8642 20.888 83.1082 19.6 82.8282 17.808C82.7909 17.5093 82.9029 17.1733 83.1642 16.8C83.7615 15.96 84.7322 14.6347 86.0762 12.824C86.3002 12.5067 86.5522 12.2173 86.8322 11.956C87.2242 11.564 87.4482 10.9947 87.5042 10.248C87.5415 9.93066 87.5975 9.38933 87.6722 8.624C87.7469 7.84 87.8029 7.23333 87.8402 6.804C87.8402 6.692 87.8309 6.58 87.8122 6.468C87.7935 6.356 87.7562 6.23466 87.7002 6.104C87.6629 5.95466 87.6349 5.84266 87.6162 5.768C87.6162 5.74933 87.6162 5.628 87.6162 5.40399ZM108.168 2.04399C108.168 2.06266 108.187 2.08133 108.224 2.1C108.299 2.13733 108.411 2.184 108.56 2.24C108.728 2.27733 108.868 2.32399 108.98 2.38C109.092 2.436 109.158 2.492 109.176 2.54799C109.326 3.07066 109.382 3.67733 109.344 4.36799C109.326 4.57333 109.195 6.05733 108.952 8.82C108.766 10.892 108.588 12.964 108.42 15.036C108.234 17.0333 108.131 18.2373 108.112 18.648C108.075 18.9653 108.038 19.4227 108 20.02C107.982 20.5987 107.954 21.1307 107.916 21.616C107.879 22.0827 107.832 22.5307 107.776 22.96C107.72 23.3333 107.459 23.9027 106.992 24.668C106.88 24.8547 106.628 24.948 106.236 24.948C106.162 24.9667 105.34 24.976 103.772 24.976C103.492 24.976 103.268 24.892 103.1 24.724C102.932 24.5747 102.839 24.3693 102.82 24.108C102.82 24.108 102.755 23.128 102.624 21.168C102.624 21.112 102.606 20.916 102.568 20.58C102.531 20.244 102.522 19.992 102.54 19.824C102.596 19.0027 102.708 18.1907 102.876 17.388C102.97 16.8467 102.932 16.492 102.764 16.324C102.615 16.156 102.279 16.128 101.756 16.24C100.991 16.3893 100.347 16.212 99.8242 15.708C99.3015 15.204 99.1055 14.5693 99.2362 13.804C99.3669 13.0573 99.6749 12.4693 100.16 12.04C100.646 11.6107 101.271 11.368 102.036 11.312C102.41 11.2933 102.736 11.1627 103.016 10.92C103.315 10.6587 103.474 10.36 103.492 10.024C103.53 9.464 103.595 8.57733 103.688 7.36399C103.782 6.15066 103.847 5.22666 103.884 4.592C103.922 4.29333 104.015 3.808 104.164 3.136C104.314 2.52 104.706 2.22133 105.34 2.24C106.087 2.25866 106.778 2.268 107.412 2.268C107.431 2.268 107.683 2.19333 108.168 2.04399Z" fill="white"/>
</svg>
