<svg width="346" height="345" viewBox="0 0 346 345" fill="none" xmlns="http://www.w3.org/2000/svg">
<path d="M315.897 155.483C315.436 154.722 315.171 154.164 315.064 153.59C314.96 152.977 314.974 152.114 315.165 151.686C315.4 151.18 316.591 150.028 316.629 149.933C316.685 149.778 316.676 149.633 316.602 149.498C316.501 149.324 316.124 148.986 315.959 148.731C315.587 148.176 314.924 147.133 314.661 146.785C313.905 145.795 312.771 144.913 311.173 143.842C310.947 143.69 310.846 143.559 310.855 143.402C310.928 142.549 310.871 139.998 310.917 139.562C310.956 139.19 311.107 138.867 311.122 138.775C311.155 138.511 310.555 137.396 310.215 136.963C310.033 136.738 309.666 136.497 309.472 136.485C309.414 136.482 308.92 136.619 308.719 136.641C308.344 136.679 307.499 136.443 306.866 136.21C304.656 135.381 301.714 134.304 301.688 134.304C301.575 134.301 301.19 134.396 301.102 134.304C301.04 134.236 300.466 132.49 300.37 132.259C300.178 131.824 299.91 131.544 299.637 131.529C299.425 131.525 298.086 132.011 297.712 132.116C297.172 132.272 296.392 132.744 295.834 133.174C295.361 133.542 294.399 134.434 294.364 134.45C294.346 134.459 292.49 134.439 292.313 134.45C291.829 134.494 291.715 134.444 291.031 134.016C288.93 132.641 286.171 130.809 286.16 130.799C286.064 130.698 285.986 129.914 285.866 129.446C285.734 128.951 285.166 128.051 284.778 127.638C284.256 127.109 283.691 126.447 283.661 126.18C283.654 126.084 283.827 125.273 283.815 124.582C283.795 123.97 283.716 122.949 283.623 122.385C283.522 121.792 283.157 120.736 282.831 120.195C282.756 120.075 282.435 119.618 282.352 119.552C282.144 119.401 281.955 119.397 281.643 119.534C281.093 119.783 279.406 120.043 277.478 120.165C275.174 120.254 271.871 120.291 271.849 120.291C271.557 120.297 271.332 120.164 271.239 120.107C271.083 120.013 270.842 119.978 270.585 120.009C270.078 120.081 269.026 120.215 268.582 120.136C268.367 120.094 267.973 119.935 267.81 119.824C266 118.491 263.361 116.582 262.535 116.007C262.225 115.797 261.59 115.731 260.95 115.786C259.837 115.896 259.028 116.001 258.765 116.036C258.135 116.118 257.291 116.35 257.142 116.616C257.084 116.726 257.024 117.181 256.863 117.507C256.72 117.799 255.958 118.838 255.561 119.271C255.368 119.474 254.981 119.724 254.795 119.745C254.79 119.745 253.715 119.543 252.997 119.511C250.684 119.47 246.019 119.359 244.054 119.273C242.864 119.245 240.625 119.432 240.587 119.441C240.389 119.488 235.725 122.761 235.226 123.002C235.191 123.019 232.415 123.414 231.354 123.573C229.481 123.837 224.8 123.943 224.783 123.934C224.436 123.76 223.242 122.191 223.171 122.181C223.146 122.18 219.559 124.728 219.363 124.81C219.171 124.888 218.365 124.796 217.69 124.879C217.391 124.908 216.966 124.883 216.726 124.81C216.282 124.667 213.407 122.491 213.374 122.461C213.193 122.288 212.976 121.865 212.92 121.614C212.827 121.192 212.677 120.973 212.478 121.012C212.148 121.093 207.625 125.536 207.603 125.556C207.377 125.779 207.273 126.005 207.286 126.282C207.295 126.426 207.364 126.849 207.319 127.052C207.197 127.603 207.291 128.7 207.282 128.748C207.241 128.945 207.008 129.071 206.706 129.099C204.371 129.309 198.67 129.481 198.631 129.484C198.319 129.497 198.074 129.376 197.968 129.337C197.819 129.283 197.614 129.367 197.38 129.566C196.936 129.956 195.948 130.805 195.632 130.945C195.285 131.092 194.999 131.101 194.585 130.999C194.374 130.946 193.965 130.94 193.794 130.991C193.449 131.086 193.259 131.082 192.995 130.945C192.714 130.793 191.431 129.481 191.384 129.484C191.347 129.489 186.525 133.854 186.443 133.897C186.194 134.021 185.123 134.012 184.64 134.008C183.138 133.967 181.21 133.822 180.118 133.495C179.914 133.437 179.627 133.418 179.508 133.479C179.473 133.498 178.139 134.609 177.948 134.747C177.415 135.127 176.352 135.518 175.831 135.521C175.637 135.521 175.101 135.449 174.884 135.416C174.638 135.372 174.229 135.179 174.06 135.005C173.949 134.89 173.735 134.49 173.438 134.145C173.113 133.771 172.821 133.41 172.808 133.399C172.651 133.273 172.427 133.288 172.128 133.421C171.151 133.857 168.189 135.283 167.675 135.486C167.502 135.554 166.571 135.899 166.307 136.18C165.894 136.618 165.35 136.827 164.641 136.971C164.014 137.094 161.072 137.507 159.889 137.664C158.096 137.868 156.519 137.989 155.788 137.81C155.105 137.634 154.491 137.259 153.749 136.717C153.596 136.606 153.232 136.343 153.154 136.321C152.952 136.27 152.269 136.751 151.928 136.993C150.528 138.052 146.732 141.155 146.228 141.539C145.622 141.991 144.958 142.392 144.482 142.446C144.469 142.447 142.475 142.506 142.053 142.528C141.826 142.533 141.535 142.336 141.435 142.27C141.268 142.164 141.075 142.208 140.801 142.402C140.288 142.764 139.283 143.541 138.844 143.863C138.571 144.06 138.379 144.143 138.209 144.128C138.111 144.12 137.834 144.092 137.635 144.156C137.237 144.296 136.655 144.939 136.254 145.601C136.103 145.85 135.79 146.359 135.719 146.427C135.631 146.509 135.054 146.414 134.251 146.426C133.629 146.446 132.866 146.448 132.436 146.294C132.291 146.245 132.124 146.316 131.953 146.484C131.401 147.042 130.74 147.543 130.232 147.759C127.438 148.976 117.335 152.949 117.116 153C116.641 153.108 115.468 152.989 115.358 153C115.207 153.025 114.886 153.06 114.772 153C114.674 152.948 112.806 151.231 112.412 150.882C112.182 150.679 112.012 150.627 111.902 150.754C111.817 150.859 111.653 151.166 111.444 151.377C110.965 151.874 108.606 154.166 108.354 154.315C108.074 154.474 107.543 154.557 106.97 154.581C104.633 154.652 99.5342 154.806 99.234 154.791C99.045 154.782 98.6363 154.629 98.4708 154.592C98.2422 154.546 97.9844 154.642 97.8321 154.81C97.0059 155.755 95.4458 157.081 94.1948 158.069C92.7988 159.128 91.5332 159.986 90.3496 160.557C89.8618 160.812 89.0458 161.352 88.5507 161.472C88.3339 161.523 87.1313 161.608 86.6625 161.592C86.1015 161.567 85.0146 161.346 84.4535 161.123C84.0492 160.959 81.827 159.867 81.8124 159.865C81.7391 159.868 80.5643 162.398 80.0003 163.599C79.4745 164.681 78.348 166.867 77.973 167.186C77.16 167.859 72.9763 170.259 72.0242 170.794C71.7327 170.96 71.1291 171.077 70.8552 171.273C70.1579 171.775 67.5915 172.911 67.3161 172.906C67.2941 172.906 65.9977 172.77 65.8454 172.865C65.7238 172.942 65.2917 173.347 64.9665 173.449C64.7599 173.513 63.2833 173.455 62.7326 173.439C62.4059 173.429 62.1437 173.506 62.0368 173.664C61.6808 174.391 60.1383 176.824 59.8395 177.539C59.5699 178.199 59.5128 178.767 59.5318 179.575C59.5553 180.667 59.6065 183.497 59.5465 183.673C59.4674 183.894 58.9488 184.269 58.4713 184.884C56.9888 186.903 54.0196 190.845 53.98 190.976C53.9507 191.079 53.9639 191.624 53.9551 191.71C53.9302 191.924 53.7354 192.364 53.5684 192.582C53.4644 192.716 52.9737 193.245 52.9546 193.313C52.9283 193.407 52.9912 193.515 52.9546 193.606C52.937 193.649 52.5049 194.038 52.3687 194.19C52.1167 194.459 52.0274 194.508 51.6948 194.57C51.6509 194.577 48.1645 195.291 47.0952 195.504C46.707 195.589 46.5092 195.797 46.0625 196.382C44.6196 198.313 41.3002 202.691 40.1122 204.121C39.4091 204.946 37.931 206.393 37.2264 206.833C36.9657 206.994 34.2542 208.427 33.2771 208.935C32.1668 209.516 29.8186 210.765 29.6882 210.942C29.634 211.018 28.5808 213.382 28.115 214.43C27.5349 215.711 26.3352 217.839 25.6203 218.841C24.8469 219.917 23.6559 221.128 22.4284 222.25C22.2731 222.387 21.9347 222.682 21.8454 222.764C21.6637 222.929 21.3166 223.103 21.1964 223.208C21.047 223.345 21.0119 223.638 21.088 223.88C21.3239 224.567 23.2267 229.138 23.6223 230.107C23.8024 230.573 23.9577 231.372 23.9914 231.899C24.0222 232.438 23.9973 233.452 23.9123 233.969C23.864 234.221 23.6384 234.722 23.467 234.898C23.3454 235.022 23.1696 235.079 23.0451 235.198C22.9147 235.328 22.9382 235.659 23.0715 235.821C23.1799 235.945 23.7878 236.487 23.8215 236.519C23.9914 236.684 24.236 237.055 24.2683 237.213C24.2741 237.248 24.3605 239.48 24.2434 239.761C24.1379 240.005 23.9094 240.233 23.6017 240.438C23.4069 240.568 23.3044 240.747 23.3879 240.854C23.905 241.361 25.3742 243.118 26.2033 244.121C26.5051 244.5 27.1042 245.25 27.0969 245.429C27.0896 245.538 26.8845 246.879 26.8786 247.079C26.8655 247.606 27.1965 248.565 27.5305 248.966C28.2146 249.771 29.7234 250.626 29.8362 250.713C30.1467 250.967 30.3548 251.578 30.4588 252.317C30.532 252.815 30.8733 253.808 31.1282 254.222C31.3596 254.582 32.0467 255.187 32.6297 255.655C33.951 256.7 35.4481 257.775 36.3138 258.176C37.0272 258.504 37.6468 258.906 37.9295 259.274C38.0394 259.423 39.1542 261.855 39.3299 262.099C39.4647 262.281 39.7899 262.518 39.954 262.556C40.0565 262.576 41.3588 262.614 42.1278 262.788C42.9438 262.977 45.6699 263.722 46.8271 264.043C47.4995 264.228 48.478 264.431 48.7065 264.592C48.8838 264.719 49.3027 265.198 49.4404 265.325C49.6338 265.501 50.1113 265.718 50.375 265.747C50.6006 265.766 51.2261 265.698 51.3433 265.615C51.4722 265.524 51.815 265.135 51.9292 265.176C52.0464 265.226 52.8199 266.446 53.1011 266.929C53.4204 267.483 53.7149 268.095 53.6929 268.398C53.6724 268.682 54.0093 269.428 54.2452 269.934C54.8794 271.27 55.4566 272.677 55.502 272.792C55.6675 273.195 57.7066 275.018 58.7467 275.887C60.0621 276.936 60.6407 277.348 62.6183 278.575C63.0036 278.817 63.5133 279.416 63.5675 279.841C63.654 280.795 63.9484 283.243 64.0187 283.633C64.0744 283.932 64.4508 284.816 64.6559 285.175C64.8141 285.46 64.8566 285.602 64.82 285.771C64.7848 285.917 64.4406 287.024 64.3805 287.232" stroke="white" stroke-width="2" stroke-linecap="round" stroke-linejoin="round"/>
<path d="M327.616 136.496C327.711 136.967 328.006 138.437 328.067 138.597C328.173 138.853 328.48 139.069 328.709 139.075C329.137 139.081 329.443 139.17 329.814 139.417C330.237 139.705 332.157 141.871 332.994 142.827C333.949 143.948 334.878 145.105 335.732 145.877C336.117 146.226 337.138 147.056 337.368 147.306C337.514 147.468 337.8 147.871 337.87 148.035C337.976 148.296 338.039 148.778 337.987 149.031C337.961 149.155 336.89 152.208 336.533 153.245C336.443 153.516 336.35 153.684 336.112 154.023" stroke="white" stroke-width="2" stroke-linecap="round" stroke-linejoin="round"/>
<path d="M46.9489 162.494C46.6179 161.716 45.468 158.999 45.2585 158.542C44.7136 157.351 43.5241 155.308 42.8825 154.545C42.4181 154.001 40.6456 152.594 39.6246 151.831C37.8419 150.549 34.7964 148.415 33.8677 147.756C33.5206 147.496 32.7369 146.912 32.4966 146.57C32.4761 146.54 32.148 145.888 32.1538 145.843C32.17 145.735 32.3194 145.492 32.3062 145.19C32.2476 144.083 32.1787 142.663 32.1538 142.63C32.0879 142.543 31.7906 142.44 31.5884 142.181C31.1753 141.663 30.4502 140.626 30.3169 140.253C30.2085 139.938 30.3154 139.143 30.5103 138.968C30.7959 138.725 32.0425 138.353 32.6109 138.214C33.1998 138.068 34.6807 137.66 34.7393 137.65C35.1143 137.595 37.817 138.375 38.7267 138.779C39.1822 138.984 40.3776 139.631 40.5035 139.708C40.8053 139.901 41.0983 140.165 41.0895 140.293C41.0748 140.423 40.8258 140.728 40.65 140.877C40.3951 141.094 40.3322 141.22 40.3322 141.528C40.3322 141.536 40.297 143.088 40.3204 143.713C40.3292 144.019 40.4332 144.279 40.6237 144.444C40.7233 144.53 41.0455 144.775 41.1437 145.016C41.3092 145.419 41.507 145.666 41.8219 145.843C42.0343 145.957 43.1081 146.122 43.6427 146.112C44.1584 146.099 45.2394 145.896 45.7507 145.733C46.0773 145.628 47.2536 145.159 47.7868 144.977C48.3171 144.796 49.3703 144.53 49.8743 144.455C50.406 144.379 51.4592 144.368 51.9734 144.422C52.4744 144.477 53.5584 144.695 54.0257 144.85C54.5852 145.041 55.5403 145.542 56.0516 145.931C56.324 146.139 57.3187 147.017 57.6424 147.304C57.8123 147.463 57.9325 147.695 57.9354 147.888C57.9354 147.945 57.6805 149.397 57.6424 149.933C57.6087 150.437 57.6688 151.59 57.6424 151.685C57.578 151.9 57.3905 152.036 57.0565 152.124C55.4861 152.517 52.1873 153.653 51.7962 153.795C51.6072 153.86 51.1311 153.903 50.9568 153.948C50.7048 154.018 50.551 154.271 50.5642 154.566C50.6243 155.353 50.4939 156.371 50.4939 156.371C50.5056 156.713 51.0007 157.398 51.6086 158.128C52.0086 158.62 52.5271 159.681 52.5154 159.719C52.4363 159.931 51.8196 160.188 50.8748 160.613C49.5769 161.21 47.7942 162.052 47.3107 162.295C47.0046 162.446 46.757 162.666 46.6882 162.89C46.6691 162.957 46.6032 163.928 46.5095 164.539" stroke="white" stroke-width="2" stroke-linecap="round" stroke-linejoin="round"/>
<path d="M328.349 138.979C328.215 139.199 328.24 139.444 328.255 139.532C328.277 139.712 328.16 139.935 327.911 140.192C327.487 140.625 325.69 142.369 325.65 142.526C325.546 142.991 325.533 146.266 325.565 146.574C325.598 146.841 325.719 147.425 325.792 147.567C325.951 147.864 326.635 148.359 327.307 148.773C329.195 149.905 335.616 153.662 335.655 153.684C335.928 153.843 336.092 153.994 336.159 154.184C336.208 154.321 336.439 155.146 336.698 155.776" stroke="white" stroke-width="2" stroke-linecap="round" stroke-linejoin="round"/>
<path d="M315.897 155.483C315.579 155.716 314.794 156.282 314.432 156.506C313.86 156.858 313.007 157.176 312.967 157.236C312.965 157.241 312.946 159.819 312.967 159.865C312.972 159.873 316.102 162.737 316.19 162.787C316.236 162.811 316.931 162.778 317.796 162.842C318.553 162.887 319.072 162.69 319.173 162.547C319.249 162.435 319.43 161.992 319.706 161.764C319.955 161.561 321.301 160.981 321.65 160.815C321.919 160.688 322.417 160.296 322.622 160.179C322.819 160.07 322.968 160.194 323.081 160.464C324.352 163.948 325.221 165.781 325.968 167.146C326.175 167.522 326.463 167.796 326.591 167.899" stroke="white" stroke-width="2" stroke-linecap="round" stroke-linejoin="round"/>
<path d="M328.055 168.483C327.404 168.312 326.612 167.899 326.591 167.899C326.406 167.902 323.232 168.935 322.376 169.057C322.184 169.084 321.5 169.113 321.402 169.124C320.96 169.178 320.372 169.621 319.999 170.09C319.835 170.3 319.465 170.841 319.413 170.966C319.383 171.038 319.31 171.464 319.266 171.55C319.213 171.657 318.928 172.126 318.827 172.427C318.797 172.516 318.585 173.947 318.576 174.356C318.57 174.913 318.834 175.915 319.14 176.337C319.191 176.406 320.109 177.511 320.227 177.776C320.35 178.173 320.642 178.656 321.109 179.328C321.481 179.847 322.181 180.83 322.52 181.35C322.917 181.969 323.415 183.171 323.495 183.303C323.74 183.691 324.537 184.179 325.356 184.538C325.439 184.575 325.559 184.627 325.712 184.696" stroke="white" stroke-width="2" stroke-linecap="round" stroke-linejoin="round"/>
<path d="M46.5093 189.224C48.4165 188.87 49.1065 188.723 49.6426 188.53C49.8931 188.432 50.3223 188.146 50.4307 187.973C50.5259 187.817 50.4161 186.685 50.5362 186.348C50.6446 186.035 50.6314 185.851 50.4644 185.572C50.3223 185.346 49.2339 184.314 48.7447 183.968C48.481 183.786 47.9756 183.526 47.709 183.441C47.4526 183.364 46.9561 183.336 46.7026 183.38C46.4434 183.431 45.9746 183.635 45.7373 183.805C45.5337 183.951 45.0019 184.462 44.8628 184.583C44.6108 184.811 44.6035 184.858 44.7514 185.134C44.8188 185.252 45.6392 187.778 45.7768 188.055C45.9761 188.451 46.3115 188.803 46.3936 188.904C46.4946 189.035 46.5181 189.411 46.4404 189.641C46.4272 189.678 46.1108 190.38 46.0698 190.538C46.0156 190.753 46.0244 190.997 46.0698 191.122" stroke="white" stroke-width="2" stroke-linecap="round" stroke-linejoin="round"/>
<path d="M323.807 183.674C321.474 184.118 317.687 184.419 317.472 184.524C317.305 184.609 314.445 187.433 314.286 187.618C313.982 187.975 313.754 188.324 313.692 188.555C313.495 189.332 313.064 191.044 312.967 192.584C312.903 193.638 312.835 199.227 312.835 199.259C312.831 199.548 312.772 199.78 312.642 199.875C312.548 199.939 309.103 200.925 308.888 201.014C308.479 201.185 307.565 201.84 307.139 202.2C306.755 202.531 304.896 204.273 303.572 205.382C302.606 206.151 300.04 208.068 299.914 208.157C299.477 208.472 299.212 208.823 299.136 209.226C299.006 209.997 298.985 210.517 299.198 211.28C299.431 212.084 300.942 215.086 301.102 215.223C301.21 215.315 301.511 215.369 301.688 215.369" stroke="white" stroke-width="2" stroke-linecap="round" stroke-linejoin="round"/>
<path d="M301.102 215.223C297.515 218.418 290.02 224.987 289.969 225.009C289.77 225.094 289.582 225.126 289.41 225.109C289.298 225.096 289.194 224.97 289.09 225.009C288.961 225.058 288.916 225.231 288.797 225.301C288.714 225.351 287.694 225.411 287.584 225.426C287.404 225.455 287.3 225.662 287.29 225.995C287.278 226.734 287.331 228.22 287.332 228.223C287.397 228.36 288.591 229.133 288.797 229.245C289.187 229.463 289.415 229.673 289.383 229.829C289.351 229.955 283.846 236.077 283.524 236.402C282.97 236.96 282.301 237.52 282.059 237.717" stroke="white" stroke-width="2" stroke-linecap="round" stroke-linejoin="round"/>
<path d="M289.969 225.009C290.095 225.17 290.409 225.572 290.596 225.813C290.822 226.1 290.875 226.258 290.848 226.47" stroke="white" stroke-width="2" stroke-linecap="round" stroke-linejoin="round"/>
<path d="M16.4795 236.402C17.1109 235.199 17.8843 233.963 18.7428 232.929C19.0006 232.616 19.2584 232.332 19.2628 232.313C19.2657 232.292 18.5069 231.483 18.1495 231.061C17.7672 230.636 16.8677 230.069 16.626 230.122C16.4429 230.167 16.1441 230.525 16.0401 230.56C15.9493 230.593 15.835 230.517 15.7471 230.56C15.7046 230.58 15.1538 231.201 15.0147 231.29C14.94 231.34 14.5298 231.388 14.4287 231.436C14.3438 231.478 13.96 231.863 13.8823 231.99C13.6553 232.377 13.645 233.126 13.7007 233.89C13.7227 234.14 13.5601 234.395 13.5498 234.503C13.5469 234.553 13.8574 235.133 13.9541 235.282C14.1079 235.51 14.4566 235.83 14.6704 235.939C15.063 236.098 15.9932 236.556 16.0401 236.548C16.147 236.529 16.3917 236.379 16.4795 236.402Z" stroke="white" stroke-width="2" stroke-linecap="round" stroke-linejoin="round"/>
<path d="M16.4797 236.403C16.7244 236.743 16.821 237.231 16.7727 237.863" stroke="white" stroke-width="2" stroke-linecap="round" stroke-linejoin="round"/>
<path d="M16.0405 237.863V236.548" stroke="white" stroke-width="2" stroke-linecap="round" stroke-linejoin="round"/>
<path d="M282.352 238.739C282.207 238.359 282.01 237.879 281.912 237.716C281.783 237.509 281.416 237.347 281.033 237.278C280.912 237.259 279.508 237.179 279.084 237.186C278.527 237.201 277.559 237.385 277.179 237.57C276.292 238.054 274.201 238.689 272.679 239.094C271.61 239.377 270.006 239.862 269.905 239.896C269.744 239.945 269.546 239.888 269.3 239.732C268.698 239.348 267.908 238.778 267.557 238.447C267.138 238.047 266.418 237.004 266.385 236.986C266.364 236.977 264.828 236.856 264.743 236.85C264.208 236.82 263.396 237.122 263.102 237.411C263.083 237.43 257.257 244.992 257.224 245.042C257.043 245.293 256.963 245.337 256.717 245.312C256.561 245.293 255.039 245.249 254.682 245.247C254.253 245.245 252.918 245.313 252.624 245.481C252.617 245.486 251.96 246.422 251.402 247.059C250.478 248.077 248.266 250.531 248.221 250.716C248.175 250.919 248.402 251.395 248.513 251.592C248.575 251.733 248.556 252.001 248.513 252.177" stroke="white" stroke-width="2" stroke-linecap="round" stroke-linejoin="round"/>
<path d="M248.221 250.716C247.663 250.345 247.179 250.12 246.621 250.072C246.102 250.031 245.033 250.069 244.705 250.132C244.287 250.218 242.637 250.981 241.23 251.452C236.071 253.145 227.931 256.166 227.566 256.121C227.45 256.105 227.089 255.758 226.98 255.682C226.851 255.592 224.371 254.825 222.722 254.184C222.115 253.938 221.043 253.51 220.579 253.326C220.239 253.189 219.698 253.218 219.337 253.15C218.414 252.979 217.889 252.942 217.312 253.199C216.651 253.51 214.845 255.393 214.822 255.39C214.815 255.389 214.293 255.037 214.089 254.977C213.66 254.846 212.68 254.66 212.134 254.593C211.376 254.502 210.476 254.499 210.281 254.66C210.074 254.844 210.019 255.181 210.092 255.672C210.168 256.157 209.975 256.734 209.976 257.142C209.98 257.748 209.986 258.553 209.988 258.75" stroke="white" stroke-width="2" stroke-linecap="round" stroke-linejoin="round"/>
<path d="M215.554 256.997L214.822 255.39" stroke="white" stroke-width="2" stroke-linecap="round" stroke-linejoin="round"/>
<path d="M198.855 267.221C200.759 264.475 202.263 262.501 202.914 261.845C203.262 261.502 204.083 260.955 204.714 260.649C205.643 260.204 209.667 258.91 209.695 258.896C209.977 258.75 210.032 258.753 210.288 258.953C210.355 259.008 210.867 259.373 211.013 259.48" stroke="white" stroke-width="2" stroke-linecap="round" stroke-linejoin="round"/>
<path d="M48.7068 264.592C48.8342 264.382 48.8752 264.211 48.8342 263.935C48.7859 263.568 48.8401 263.262 48.9998 263.132C49.1829 262.996 50.51 263.135 50.7576 263.132C51.0769 263.13 51.6629 263.047 51.679 263.05C51.8269 263.086 51.9954 263.415 52.0115 263.668C52.0262 263.983 51.9441 264.991 51.9295 265.177" stroke="white" stroke-width="2" stroke-linecap="round" stroke-linejoin="round"/>
<path d="M74.7813 286.648C74.4239 285.647 73.7706 284.156 73.7559 284.019C73.7428 283.873 73.8907 283.526 73.9024 283.434C73.92 283.288 73.3414 280.341 73.2579 279.331C73.2169 278.82 73.1304 276.8 73.1217 276.695C73.1099 276.518 73.1949 276.385 73.441 276.174C75.3204 274.542 78.5197 271.836 78.7365 271.749C78.9035 271.684 79.0529 271.666 79.1847 271.697C79.3078 271.725 79.403 271.834 79.5275 271.857C79.6842 271.882 80.0519 271.66 80.2321 271.444C81.0363 270.448 81.9079 268.15 82.1935 267.812C82.5539 267.392 85.4367 265.077 85.9538 264.699C86.2937 264.454 87.407 263.731 87.8567 263.628C88.0955 263.576 89.0344 263.768 89.3699 263.662C89.4885 263.627 89.5999 263.548 89.7229 263.551C89.9075 263.558 90.2473 263.771 90.4597 263.983C90.9593 264.497 93.2239 267.122 93.6194 267.525C93.952 267.861 94.6419 268.339 95.0345 268.349C95.1619 268.352 95.6849 268.225 95.7288 268.244C95.7933 268.27 95.8109 268.365 95.8753 268.39C95.9017 268.4 98.5297 268.089 100.163 268.01C100.775 267.991 102.584 267.933 102.614 267.952C102.703 268.015 102.794 268.307 103.003 268.543C103.496 269.111 104.956 270.699 105.25 271.019" stroke="white" stroke-width="2" stroke-linecap="round" stroke-linejoin="round"/>
<path d="M104.811 272.626C104.844 272.426 104.929 271.926 104.982 271.627C105.047 271.29 105.212 270.939 105.395 270.8C105.414 270.787 115.881 265.666 117.806 264.746C118.085 264.61 118.353 264.528 118.556 264.527C118.668 264.527 119.651 264.603 120.199 264.572C120.507 264.558 120.92 264.559 121.071 264.593C121.244 264.635 121.989 265.2 122.615 265.523C123.06 265.751 124.169 266.29 124.759 266.573C125.229 266.805 126.138 267.252 126.5 267.562C126.716 267.748 127.578 268.161 127.934 268.656C128.038 268.805 128.421 269.378 128.542 269.559" stroke="white" stroke-width="2" stroke-linecap="round" stroke-linejoin="round"/>
<path d="M192.263 269.266C190.505 267.951 187.763 266.002 187.233 265.692C186.815 265.451 185.999 265.201 185.542 265.173C185.109 265.153 184.111 265.296 183.569 265.451C183.051 265.601 182.101 265.943 181.489 266.187C180.934 266.415 180.386 266.863 179.958 267.075C179.699 267.202 176.476 268.469 175.438 268.845C175.111 268.964 174.919 268.996 174.716 268.949C173.867 268.75 172.129 268.658 172.048 268.682C171.922 268.72 171.808 268.864 171.682 268.828C171.565 268.794 171.547 268.623 171.462 268.536C171.442 268.514 170.441 268.436 169.704 268.244C168.97 268.049 166.898 267.331 166.268 267.087C165.953 266.968 165.734 266.76 165.647 266.684C165.485 266.545 165.239 266.47 164.939 266.459C164.295 266.434 163.379 266.432 162.745 266.457C162.447 266.472 162.229 266.539 162.138 266.676C161.918 267.12 161.355 267.713 161.021 268.07C160.089 269.024 158.498 270.643 157.839 271.311" stroke="white" stroke-width="2" stroke-linecap="round" stroke-linejoin="round"/>
<path d="M127.663 268.244C127.865 268.07 128.147 267.844 128.249 267.806C128.332 267.775 128.75 267.817 128.834 267.806C128.965 267.79 134.646 266.095 135.683 265.859C136.357 265.708 137.71 265.572 138.193 265.694C138.311 265.726 138.82 265.926 138.856 265.938C139.033 266.008 139.273 266.205 139.412 266.421C139.515 266.582 139.737 267.046 139.865 267.214C140.033 267.435 141.571 269.364 142.635 270.948C143.123 271.672 143.785 272.6 143.923 272.772C144.347 273.299 144.998 273.822 145.094 274.086C145.223 274.455 145.238 275.478 145.241 275.693" stroke="white" stroke-width="2" stroke-linecap="round" stroke-linejoin="round"/>
<path d="M199.294 268.098C199.264 267.788 199.029 267.406 198.708 267.222C198.443 267.074 196.096 267.239 195.893 267.306C195.812 267.334 192.389 269.109 192.263 269.266C192.159 269.405 192.253 269.867 192.263 269.997C192.279 270.162 192.193 270.593 192.116 270.873" stroke="white" stroke-width="2" stroke-linecap="round" stroke-linejoin="round"/>
<path d="M95.8752 268.828V268.39" stroke="white" stroke-width="2" stroke-linecap="round" stroke-linejoin="round"/>
<path d="M171.609 268.828C171.483 268.944 171.169 269.233 170.982 269.408C170.756 269.614 170.703 269.799 170.73 270.143" stroke="white" stroke-width="2" stroke-linecap="round" stroke-linejoin="round"/>
<path d="M171.608 268.828C171.658 269.028 171.793 269.58 171.755 269.705C171.73 269.785 171.632 269.931 171.462 270.143" stroke="white" stroke-width="2" stroke-linecap="round" stroke-linejoin="round"/>
<path d="M174.245 268.828C174.105 268.989 173.755 269.39 173.545 269.631C173.293 269.919 173.144 270.077 172.927 270.289" stroke="white" stroke-width="2" stroke-linecap="round" stroke-linejoin="round"/>
<path d="M174.831 268.974C175.07 268.932 175.18 269.018 175.222 269.34C175.238 269.461 175.254 269.583 175.271 269.705" stroke="white" stroke-width="2" stroke-linecap="round" stroke-linejoin="round"/>
<path d="M174.831 268.974C174.533 269.333 173.662 270.4 173.659 270.435C173.658 270.47 173.708 270.518 173.806 270.581" stroke="white" stroke-width="2" stroke-linecap="round" stroke-linejoin="round"/>
<path d="M150.515 272.626C151.064 272.303 151.619 272.036 152.138 271.913C152.284 271.879 152.911 271.754 153.11 271.71C153.355 271.655 153.501 271.571 153.739 271.367C153.928 271.206 154.102 271.137 154.379 271.116C154.852 271.081 157.234 270.978 157.259 270.984C157.564 271.064 157.848 271.681 158.132 272.48" stroke="white" stroke-width="2" stroke-linecap="round" stroke-linejoin="round"/>
<path d="M145.094 274.087C145.453 273.882 146.48 273.296 146.898 273.118C147.447 272.889 148.341 272.712 149.017 272.684C149.047 272.683 149.709 272.648 149.782 272.626C149.898 272.594 150.271 272.497 150.368 272.626C150.419 272.699 150.712 273.942 150.807 274.379" stroke="white" stroke-width="2" stroke-linecap="round" stroke-linejoin="round"/>
<path d="M64.8201 285.626C67.7718 283.934 69.7156 282.885 69.8006 282.85C70.139 282.717 70.3499 282.697 70.5858 282.773C71.0941 282.941 72.6746 282.95 72.7303 282.996C72.8621 283.113 73.12 283.562 73.3924 283.763C73.4466 283.803 73.5682 283.889 73.7557 284.019" stroke="white" stroke-width="2" stroke-linecap="round" stroke-linejoin="round"/>
<path d="M65.8455 300.67C66.1619 300.296 67.0745 299.215 67.3734 298.882C67.8861 298.314 68.8045 297.575 68.9217 297.457C69.1268 297.245 69.4549 296.769 69.5077 296.58C69.5663 296.347 69.1825 295.649 68.7459 294.918C67.8187 293.389 67.1405 292.415 66.9559 292.314C66.8035 292.235 66.4154 292.177 66.1927 292.191C66.0184 292.204 64.7132 292.372 64.3543 292.358C64.2298 292.352 63.7933 292.31 63.6482 292.345C63.4182 292.406 63.0286 292.667 62.7693 292.929C62.6331 293.069 61.593 294.22 61.5974 294.243C61.6048 294.268 63.6468 297.055 64.4598 298.181C64.9549 298.891 65.0398 299.21 65.1131 299.502C65.1658 299.613 65.5965 300.159 65.6346 300.217C65.91 300.647 65.9188 301.256 65.8455 301.985" stroke="white" stroke-width="2" stroke-linecap="round" stroke-linejoin="round"/>
<g filter="url(#filter0_d_33174_10763)">
<circle cx="161" cy="137" r="7" fill="#FFBF36"/>
<circle cx="161" cy="137" r="6" stroke="white" stroke-width="2"/>
</g>
<circle cx="206" cy="154" r="6" fill="#CECECE" stroke="white" stroke-width="2"/>
<circle cx="145" cy="165" r="6" fill="#CECECE" stroke="white" stroke-width="2"/>
<circle cx="108" cy="158" r="6" fill="#CECECE" stroke="white" stroke-width="2"/>
<circle cx="192" cy="250" r="6" fill="#CECECE" stroke="white" stroke-width="2"/>
<circle cx="43" cy="236" r="6" fill="#CECECE" stroke="white" stroke-width="2"/>
<defs>
<filter id="filter0_d_33174_10763" x="136" y="112" width="54" height="54" filterUnits="userSpaceOnUse" color-interpolation-filters="sRGB">
<feFlood flood-opacity="0" result="BackgroundImageFix"/>
<feColorMatrix in="SourceAlpha" type="matrix" values="0 0 0 0 0 0 0 0 0 0 0 0 0 0 0 0 0 0 127 0" result="hardAlpha"/>
<feOffset dx="2" dy="2"/>
<feGaussianBlur stdDeviation="10"/>
<feComposite in2="hardAlpha" operator="out"/>
<feColorMatrix type="matrix" values="0 0 0 0 1 0 0 0 0 0.916667 0 0 0 0 0 0 0 0 0.9 0"/>
<feBlend mode="normal" in2="BackgroundImageFix" result="effect1_dropShadow_33174_10763"/>
<feBlend mode="normal" in="SourceGraphic" in2="effect1_dropShadow_33174_10763" result="shape"/>
</filter>
</defs>
</svg>
