<svg width="236" height="58" viewBox="0 0 236 58" fill="none" xmlns="http://www.w3.org/2000/svg">
<path d="M1.02 11.2799C1.46 10.5199 2.1 10.0599 2.94 9.89992C7.9 8.97992 11.68 8.33992 14.28 7.97992C18.24 7.41992 21.92 7.37992 25.32 7.85992C25.4 7.85992 25.6 7.87992 25.92 7.91992C26.24 7.95992 26.46 7.99992 26.58 8.03992C26.74 8.03992 26.94 8.07992 27.18 8.15992C27.42 8.19992 27.62 8.27992 27.78 8.39992C27.98 8.51992 28.16 8.65992 28.32 8.81992C28.64 9.09992 28.96 9.69992 29.28 10.6199C30.8 14.8999 31.44 19.7399 31.2 25.1399C31.12 27.0999 30.82 29.9999 30.3 33.8399C30.22 34.6399 30.08 36.4799 29.88 39.3599C29.72 42.1999 29.44 44.3799 29.04 45.8999C28.64 47.5399 28.12 48.6599 27.48 49.2599C27 49.7399 25.6 50.0599 23.28 50.2199C21 50.3799 18.94 50.3999 17.1 50.2799C16.18 50.2399 15.66 49.9399 15.54 49.3799C15.46 49.1399 15.46 48.8399 15.54 48.4799C15.62 48.1599 15.72 47.7999 15.84 47.3999C15.96 46.9999 16.02 46.7199 16.02 46.5599C16.22 45.4799 16.38 44.3799 16.5 43.2599C16.74 41.2599 16.9 39.0999 16.98 36.7799C17.06 33.8999 17 29.6199 16.8 23.9399C16.76 23.0999 16.64 22.4999 16.44 22.1399C15.92 21.1799 14.68 20.9199 12.72 21.3599C10.52 21.8799 6.56 22.0399 0.840003 21.8399C0.560003 21.8399 0.360004 21.7799 0.240004 21.6599C0.0800036 21.4999 0.0200035 21.1799 0.0600034 20.6999C0.420003 14.8999 0.740003 11.7599 1.02 11.2799ZM39.12 2.03992C41.44 1.91992 42.66 1.85992 42.78 1.85992C44.1 1.89992 45.4 2.01992 46.68 2.21992C48 2.37992 49.16 2.49992 50.16 2.57992C51.32 2.69992 51.92 3.33992 51.96 4.49992C52 5.93992 52.1 8.13992 52.26 11.0999C52.46 14.0599 52.58 16.2999 52.62 17.8199C52.7 18.9399 52.72 20.9599 52.68 23.8799C52.68 26.7999 52.68 28.8199 52.68 29.9399C52.72 31.5399 52.72 34.8599 52.68 39.8999C52.68 44.9399 52.68 48.2799 52.68 49.9199C52.68 49.9599 52.68 49.9999 52.68 50.0399C52.68 50.8799 52.56 51.6799 52.32 52.4399C51.8 53.9199 50.84 54.6399 49.44 54.5999C48.8 54.5999 48.04 54.5999 47.16 54.5999C46.32 54.6399 45.6 54.6199 45 54.5399C44.52 54.4999 44.02 54.3399 43.5 54.0599C42.98 53.7799 42.64 53.4599 42.48 53.0999C41.32 50.2199 40.7 47.9999 40.62 46.4399C40.46 42.9199 40.34 37.0199 40.26 28.7399C40.22 20.4599 40.14 14.7999 40.02 11.7599C40.02 10.7999 39.96 9.79992 39.84 8.75992C39.76 7.67992 39.64 6.45992 39.48 5.09992C39.32 3.73992 39.2 2.71992 39.12 2.03992ZM67.8961 37.0799C68.0161 37.0399 68.9161 36.7999 70.5961 36.3599C72.3161 35.8799 73.5761 35.6399 74.3761 35.6399C74.7361 35.6399 75.1161 35.6799 75.5161 35.7599C75.9961 35.8799 76.5561 35.9399 77.1961 35.9399C77.5161 35.9399 77.9761 35.9199 78.5761 35.8799C79.1761 35.8399 79.6161 35.8199 79.8961 35.8199C80.2161 35.8199 80.6561 35.8399 81.2161 35.8799C81.8161 35.9199 82.2561 35.9399 82.5361 35.9399C83.5761 35.9399 84.6561 35.8799 85.7761 35.7599C86.8961 35.5999 88.1161 35.3999 89.4361 35.1599C90.7961 34.9199 91.8361 34.7599 92.5561 34.6799C93.3961 34.5599 94.3161 34.4999 95.3161 34.4999C96.2361 34.4999 97.7761 34.5799 99.9361 34.7399C102.136 34.8599 103.516 34.9199 104.076 34.9199C104.276 34.9199 104.416 34.9999 104.496 35.1599C105.216 36.5999 105.656 38.3999 105.816 40.5599C105.896 41.5599 105.936 42.3399 105.936 42.8999C105.936 43.8199 105.896 44.7199 105.816 45.5999C105.776 46.4799 105.696 47.5199 105.576 48.7199C105.496 49.9199 105.436 50.7999 105.396 51.3599C105.316 51.9999 104.856 53.1399 104.016 54.7799C103.776 55.2599 103.436 55.6199 102.996 55.8599C102.556 56.1399 102.176 56.2999 101.856 56.3399C101.576 56.3799 101.136 56.4399 100.536 56.5199C99.8161 56.5599 99.2961 56.6199 98.9761 56.6999C98.5761 56.7799 97.9561 56.8599 97.1161 56.9399C96.3161 57.0599 95.7361 57.1599 95.3761 57.2399C95.1361 57.2799 94.9361 57.2999 94.7761 57.2999C93.9761 57.2999 93.5561 56.7999 93.5161 55.7999C93.3961 51.5999 93.3361 48.6399 93.3361 46.9199C93.2961 45.5999 92.7161 44.9399 91.5961 44.9399C91.4761 44.9399 91.3561 44.9599 91.2361 44.9999C90.6361 45.0399 89.7761 45.1799 88.6561 45.4199C87.5761 45.6199 86.8761 45.7399 86.5561 45.7799C86.2761 45.8199 85.6561 45.9199 84.6961 46.0799C83.7761 46.2399 82.9761 46.3599 82.2961 46.4399C81.6561 46.5199 81.0161 46.5599 80.3761 46.5599C78.8161 46.5599 75.6561 46.3599 70.8961 45.9599C70.6561 45.9199 70.3761 45.8199 70.0561 45.6599C69.7761 45.4599 69.6361 45.2799 69.6361 45.1199C69.5161 44.6799 69.2761 44.1199 68.9161 43.4399C68.5961 42.7199 68.4361 41.9999 68.4361 41.2799C68.4361 41.1199 68.3161 40.7399 68.0761 40.1399C67.8361 39.4999 67.8161 39.0199 68.0161 38.6999C68.0561 38.5799 68.0761 38.4599 68.0761 38.3399C68.0761 38.1399 68.0361 37.9199 67.9561 37.6799C67.9161 37.4399 67.8961 37.2399 67.8961 37.0799ZM72.5161 18.2399C73.2761 20.6399 73.7361 21.9799 73.8961 22.2599C74.0161 22.4999 74.2161 22.7599 74.4961 23.0399C74.8161 23.2799 75.0761 23.3799 75.2761 23.3399C76.6361 23.2199 77.7561 22.8799 78.6361 22.3199C79.5161 21.7199 80.0761 20.9199 80.3161 19.9199C80.5561 18.8799 80.3161 17.6599 79.5961 16.2599C78.5161 14.0999 76.8361 13.3599 74.5561 14.0399C73.2761 14.4399 72.5961 15.8399 72.5161 18.2399ZM79.0561 31.0799C74.5761 31.1999 70.4761 30.1999 66.7561 28.0799C64.4761 26.7999 62.9561 24.6799 62.1961 21.7199C61.2761 18.1199 61.1561 15.1999 61.8361 12.9599C62.2361 11.7199 62.8161 10.5799 63.5761 9.53992C65.0961 7.45992 66.4161 5.89992 67.5361 4.85992C69.2561 3.29992 71.4361 2.67992 74.0761 2.99992C77.5161 3.43992 81.1561 4.81992 84.9961 7.13992C87.1561 8.41992 88.4761 10.3799 88.9561 13.0199C89.6361 17.2199 89.6761 20.6199 89.0761 23.2199C88.5161 25.7799 87.3561 27.7799 85.5961 29.2199C83.8761 30.6599 81.6961 31.2799 79.0561 31.0799ZM100.476 10.8599C101.636 11.0599 102.416 11.3599 102.816 11.7599C103.256 12.1199 103.516 12.7999 103.596 13.7999C103.636 14.2799 103.656 14.9999 103.656 15.9599C103.656 16.8799 103.656 17.4199 103.656 17.5799C103.696 18.5799 103.016 19.3199 101.616 19.7999C100.656 20.1199 99.5161 20.3799 98.1961 20.5799C96.6761 20.7799 95.7761 20.2399 95.4961 18.9599C94.8961 16.3999 95.2961 13.8799 96.6961 11.3999C96.8161 11.2399 96.9961 11.1199 97.2361 11.0399C97.5161 10.9599 97.9161 10.8999 98.4361 10.8599C98.9561 10.7799 99.2761 10.7199 99.3961 10.6799C99.4361 10.6799 99.7961 10.7399 100.476 10.8599ZM113.676 22.8599C113.636 25.3799 113.036 27.1199 111.876 28.0799C111.436 28.4399 110.836 28.6999 110.076 28.8599C109.356 28.9799 108.716 29.0199 108.156 28.9799H107.376L106.056 28.6199C105.256 28.4199 104.856 27.8999 104.856 27.0599C104.896 20.2999 104.856 15.7199 104.736 13.3199C104.576 10.6799 104.496 7.43992 104.496 3.59992C104.496 2.79992 104.776 2.13992 105.336 1.61992C105.896 1.09992 106.596 0.839921 107.436 0.839921L111.696 1.25992C111.856 1.37992 112.056 1.53992 112.296 1.73992C112.536 1.89992 112.876 2.25992 113.316 2.81992C113.756 3.33992 113.976 3.85992 113.976 4.37992C113.976 4.57992 113.976 6.55992 113.976 10.3199C113.936 10.3199 113.896 11.0199 113.856 12.4199C113.856 13.8199 113.836 15.6799 113.796 17.9999C113.756 20.2799 113.716 21.8999 113.676 22.8599ZM136.692 38.5199C136.692 38.9599 136.692 39.5999 136.692 40.4399C136.692 41.2399 136.692 41.8599 136.692 42.2999C137.412 42.2999 138.472 42.2999 139.872 42.2999C141.272 42.2999 142.332 42.2999 143.052 42.2999C144.692 42.2999 146.132 42.2799 147.372 42.2399C148.132 42.2399 149.232 42.1999 150.672 42.1199C152.112 41.9999 152.992 41.9399 153.312 41.9399C154.752 41.8599 155.472 41.1199 155.472 39.7199C155.472 39.6399 155.472 39.5199 155.472 39.3599C155.472 39.1999 155.472 39.0999 155.472 39.0599C155.472 38.1399 155.532 37.3999 155.652 36.8399C155.772 36.1999 155.852 35.7999 155.892 35.6399C155.972 35.4799 156.092 35.2599 156.252 34.9799C156.412 34.6999 156.632 34.5399 156.912 34.4999C157.192 34.4199 157.592 34.3799 158.112 34.3799C158.232 34.3799 158.812 34.2999 159.852 34.1399C160.932 33.9799 161.552 33.9199 161.712 33.9599C163.632 34.4799 164.792 34.9599 165.192 35.3999C165.632 35.8399 165.852 36.8999 165.852 38.5799C165.852 41.4199 165.732 44.9599 165.492 49.1999C165.412 50.7999 164.692 52.1799 163.332 53.3399C162.012 54.4999 160.412 55.1599 158.532 55.3199C157.652 55.3999 156.052 55.5999 153.732 55.9199C151.452 56.2799 149.672 56.4999 148.392 56.5799C147.672 56.6199 146.892 56.6399 146.052 56.6399C144.932 56.6399 142.512 56.5399 138.792 56.3399C137.672 56.2599 136.092 56.0399 134.052 55.6799C131.452 55.1599 129.752 53.5599 128.952 50.8799C128.312 48.7999 127.992 46.5999 127.992 44.2799C127.992 41.9199 128.352 38.9399 129.072 35.3399C129.152 35.0199 129.292 34.7599 129.492 34.5599C129.692 34.3599 129.992 34.2399 130.392 34.1999C130.832 34.1199 131.212 34.0799 131.532 34.0799C131.852 34.0399 132.292 34.0199 132.852 34.0199C133.092 34.0199 133.272 34.0199 133.392 34.0199C133.872 34.0199 134.232 34.0399 134.472 34.0799C134.712 34.0799 134.992 34.1199 135.312 34.1999C135.672 34.2399 135.932 34.3399 136.092 34.4999C136.252 34.6199 136.392 34.8199 136.512 35.0999C136.632 35.3799 136.692 35.7199 136.692 36.1199C136.692 36.8399 136.692 37.6399 136.692 38.5199ZM147.132 47.5799C146.212 47.5799 145.332 47.5999 144.492 47.6399C143.132 47.6399 141.772 47.7599 140.412 47.9999C140.172 48.0399 139.912 48.1599 139.632 48.3599C139.392 48.5999 139.272 48.7799 139.272 48.8999C139.392 49.5399 139.712 49.9999 140.232 50.2799C140.552 50.4399 141.012 50.5199 141.612 50.5199C142.132 50.5199 142.732 50.4799 143.412 50.3999C144.052 50.3199 144.532 50.2799 144.852 50.2799C145.172 50.2799 145.472 50.2999 145.752 50.3399C146.472 50.4999 147.252 50.5799 148.092 50.5799C149.212 50.5799 150.712 50.3799 152.592 49.9799C153.592 49.7799 154.092 49.2599 154.092 48.4199C154.092 48.2599 154.072 48.0599 154.032 47.8199C153.792 47.6999 153.672 47.6399 153.672 47.6399C153.152 47.6399 152.452 47.6399 151.572 47.6399C150.732 47.6399 149.932 47.6199 149.172 47.5799C148.452 47.5799 147.772 47.5799 147.132 47.5799ZM136.992 29.8199C136.232 29.8199 135.212 29.8399 133.932 29.8799C132.692 29.8799 131.632 29.8799 130.752 29.8799C129.912 29.8799 129.112 29.8399 128.352 29.7599C127.112 29.6399 126.132 29.2999 125.412 28.7399C124.732 28.1799 124.292 27.3199 124.092 26.1599C123.492 22.9599 123.112 20.1199 122.952 17.6399C122.832 15.1199 122.852 12.2399 123.012 8.99992C123.052 7.67992 123.352 6.55992 123.912 5.63992C124.512 4.71992 125.552 4.05992 127.032 3.65992C129.592 2.97992 131.852 2.53992 133.812 2.33992C134.092 2.29992 134.472 2.55992 134.952 3.11992C135.432 3.63992 135.672 4.09992 135.672 4.49992C135.752 5.09992 135.932 6.15992 136.212 7.67992C136.492 9.15992 136.612 10.4199 136.572 11.4599C136.532 12.4999 136.272 13.4999 135.792 14.4599C135.392 15.2599 135.272 16.5199 135.432 18.2399C135.432 18.4799 135.612 18.7399 135.972 19.0199C136.372 19.2599 136.712 19.3999 136.992 19.4399C137.432 19.4399 137.752 19.4399 137.952 19.4399C138.152 19.4399 138.472 19.3999 138.912 19.3199C139.392 19.2399 139.732 19.1799 139.932 19.1399C145.612 18.4999 149.112 18.1199 150.432 17.9999C151.592 17.8799 152.352 18.4799 152.712 19.7999C153.352 21.5999 153.652 22.7999 153.612 23.3999C153.572 23.9999 152.992 24.9999 151.872 26.3999C151.592 26.7599 150.472 27.2599 148.512 27.8999C143.352 29.5799 139.512 30.2199 136.992 29.8199ZM168.672 17.5199C168.672 21.1199 168.672 23.0999 168.672 23.4599C168.672 24.0999 168.592 25.2799 168.432 26.9999C168.312 27.9599 167.752 28.4599 166.752 28.4999C164.632 28.5399 162.792 28.5199 161.232 28.4399C160.352 28.3999 159.592 28.0799 158.952 27.4799C158.352 26.8799 158.032 26.1599 157.992 25.3199C157.952 22.3599 157.952 18.6399 157.992 14.1599C158.032 13.4799 158.072 11.9399 158.112 9.53992C158.192 7.09992 158.252 5.43992 158.292 4.55992C158.292 3.35992 158.712 2.53992 159.552 2.09992C159.752 1.97992 160.112 1.77992 160.632 1.49992C161.192 1.21992 161.612 1.01992 161.892 0.899921C162.172 0.77992 162.532 0.639919 162.972 0.479919C163.452 0.279919 163.892 0.15992 164.292 0.11992C164.732 0.0399187 165.172 0.0199189 165.612 0.0599208C166.372 0.0999203 166.912 0.17992 167.232 0.299921C168.072 0.61992 168.492 1.23992 168.492 2.15992C168.492 3.83992 168.632 5.95992 168.912 8.51992C168.992 8.99992 169.372 9.27992 170.052 9.35992C172.932 9.55992 174.552 9.69992 174.912 9.77992C175.792 9.97992 176.292 10.6799 176.412 11.8799C176.612 13.6799 176.292 15.2799 175.452 16.6799C175.212 17.0799 174.532 17.3599 173.412 17.5199C173.292 17.5199 171.712 17.5199 168.672 17.5199ZM188.448 11.5799C191.168 10.8199 194.128 10.7199 197.328 11.2799C197.968 11.3999 198.508 11.9799 198.948 13.0199C199.428 14.0199 199.608 14.9599 199.488 15.8399C199.448 16.1999 199.288 18.5599 199.008 22.9199C199.008 23.2799 199.088 23.5199 199.248 23.6399C199.408 23.7199 199.668 23.7799 200.028 23.8199C204.388 24.4199 207.748 25.3199 210.108 26.5199C211.028 26.9599 211.548 27.3199 211.668 27.5999C211.828 27.8399 211.808 28.4599 211.608 29.4599C211.408 30.2999 211.268 31.4599 211.188 32.9399C211.108 34.4199 210.928 35.6599 210.648 36.6599C210.408 37.4199 210.128 37.8999 209.808 38.0999C209.528 38.2999 209.228 38.3599 208.908 38.2799C208.628 38.1599 208.148 37.9999 207.468 37.7999C206.828 37.5999 206.188 37.4999 205.548 37.4999C205.428 37.4999 205.288 37.4599 205.128 37.3799C204.968 37.2599 204.888 37.1999 204.888 37.1999C201.288 35.7199 198.948 34.3599 197.868 33.1199C197.708 32.9199 197.508 32.7399 197.268 32.5799C197.028 32.3799 196.728 32.1599 196.368 31.9199C196.048 31.6799 195.788 31.4999 195.588 31.3799C193.948 33.9799 193.068 35.3799 192.948 35.5799C190.948 38.4999 189.488 40.5399 188.568 41.6999C188.408 41.8599 188.188 42.1199 187.908 42.4799C187.668 42.8399 187.428 43.1799 187.188 43.4999C186.988 43.7799 186.728 44.1399 186.408 44.5799C186.088 44.9799 185.788 45.2999 185.508 45.5399C185.268 45.7799 184.988 46.0199 184.668 46.2599C184.348 46.4999 184.068 46.6199 183.828 46.6199C183.588 46.6199 183.328 46.5599 183.048 46.4399C180.408 44.7599 178.788 41.9999 178.188 38.1599C178.108 37.5199 178.348 36.7999 178.908 35.9999C180.188 34.1999 182.268 31.3599 185.148 27.4799C185.628 26.7999 186.168 26.1799 186.768 25.6199C187.608 24.7799 188.088 23.5599 188.208 21.9599C188.288 21.2799 188.408 20.1199 188.568 18.4799C188.728 16.7999 188.848 15.4999 188.928 14.5799C188.928 14.3399 188.908 14.0999 188.868 13.8599C188.828 13.6199 188.748 13.3599 188.628 13.0799C188.548 12.7599 188.488 12.5199 188.448 12.3599C188.448 12.3199 188.448 12.0599 188.448 11.5799ZM232.488 4.37992C232.488 4.41992 232.528 4.45992 232.608 4.49992C232.768 4.57992 233.008 4.67992 233.328 4.79992C233.688 4.87992 233.988 4.97992 234.228 5.09992C234.468 5.21992 234.608 5.33992 234.648 5.45992C234.968 6.57992 235.088 7.87992 235.008 9.35992C234.968 9.79992 234.688 12.9799 234.168 18.8999C233.768 23.3399 233.388 27.7799 233.028 32.2199C232.628 36.4999 232.408 39.0799 232.368 39.9599C232.288 40.6399 232.208 41.6199 232.128 42.8999C232.088 44.1399 232.028 45.2799 231.948 46.3199C231.868 47.3199 231.768 48.2799 231.648 49.1999C231.528 49.9999 230.968 51.2199 229.968 52.8599C229.728 53.2599 229.188 53.4599 228.348 53.4599C228.188 53.4999 226.428 53.5199 223.068 53.5199C222.468 53.5199 221.988 53.3399 221.628 52.9799C221.268 52.6599 221.068 52.2199 221.028 51.6599C221.028 51.6599 220.888 49.5599 220.608 45.3599C220.608 45.2399 220.568 44.8199 220.488 44.0999C220.408 43.3799 220.388 42.8399 220.428 42.4799C220.548 40.7199 220.788 38.9799 221.148 37.2599C221.348 36.0999 221.268 35.3399 220.908 34.9799C220.588 34.6199 219.868 34.5599 218.748 34.7999C217.108 35.1199 215.728 34.7399 214.608 33.6599C213.488 32.5799 213.068 31.2199 213.348 29.5799C213.628 27.9799 214.288 26.7199 215.328 25.7999C216.368 24.8799 217.708 24.3599 219.348 24.2399C220.148 24.1999 220.848 23.9199 221.448 23.3999C222.088 22.8399 222.428 22.1999 222.468 21.4799C222.548 20.2799 222.688 18.3799 222.888 15.7799C223.088 13.1799 223.228 11.1999 223.308 9.83992C223.388 9.19992 223.588 8.15992 223.908 6.71992C224.228 5.39992 225.068 4.75992 226.428 4.79992C228.028 4.83992 229.508 4.85992 230.868 4.85992C230.908 4.85992 231.448 4.69992 232.488 4.37992Z" fill="white"/>
</svg>
